<svg   class="lock" width="27" height="35" viewBox="0 0 27 35"  xmlns="http://www.w3.org/2000/svg">
<path class="lock" d="M23.7539 13.4673V10.2539C23.7539 4.59984 19.1541 0 13.5 0C7.84593 0 3.24609 4.59984 3.24609 10.2539V13.4673C1.68771 13.7848 0.511719 15.1659 0.511719 16.8164V26.1816C0.511719 26.5592 0.817734 26.5 1.19531 26.5C1.57289 26.5 1.87891 26.5592 1.87891 26.1816V16.8164C1.87891 15.6855 2.79882 14.7656 3.92969 14.7656H23.0703C24.2012 14.7656 25.1211 15.6855 25.1211 16.8164V31.582C25.1211 32.4731 24.5497 33.2331 23.7539 33.5153C23.7539 33.5153 23.423 33.6328 23.0454 33.6328C22.6678 33.6328 22.4037 33.6328 22.3867 33.6328H3.92969C2.79882 33.6328 1.87891 32.7129 1.87891 31.582V26.1816C1.87891 25.8041 1.57289 25.498 1.19531 25.498C0.817734 25.498 0.511719 25.8041 0.511719 26.1816V31.582C0.511719 33.4667 2.045 35 3.92969 35H23.0703C24.955 35 26.4883 33.4667 26.4883 31.582V16.8164C26.4883 15.1659 25.3123 13.7848 23.7539 13.4673ZM8.30469 13.3984V10.2539C8.30469 7.38922 10.6353 5.05859 13.5 5.05859C16.3647 5.05859 18.6953 7.38922 18.6953 10.2539V13.3984H8.30469ZM20.0625 13.3984V10.2539C20.0625 6.6354 17.1185 3.69141 13.5 3.69141C9.88149 3.69141 6.9375 6.6354 6.9375 10.2539V13.3984H4.61328V10.2539C4.61328 5.35366 8.59975 1.36719 13.5 1.36719C18.4002 1.36719 22.3867 5.35366 22.3867 10.2539V13.3984H20.0625Z" />
<path class="lock" d="M13.5 31.3086C14.6309 31.3086 15.5508 30.3887 15.5508 29.2578V25.6278C16.5778 24.948 17.2002 23.8051 17.2002 22.5527C17.2002 20.5174 15.5441 18.8613 13.5088 18.8613C11.4733 18.8613 9.81741 20.5174 9.81741 22.5527C9.81741 23.796 10.4329 24.9346 11.4492 25.6161V29.2578C11.4492 30.3887 12.3691 31.3086 13.5 31.3086ZM11.1846 22.5527C11.1846 21.271 12.2271 20.2285 13.5088 20.2285C14.7903 20.2285 15.833 21.271 15.833 22.5527C15.833 23.4328 15.3444 24.2273 14.558 24.6265C14.3283 24.7429 14.1836 24.9784 14.1836 25.2361V29.2578C14.1836 29.6349 13.877 29.9414 13.5 29.9414C13.123 29.9414 12.8164 29.6349 12.8164 29.2578V25.227C12.8164 24.9712 12.6735 24.7367 12.446 24.6195C11.6679 24.2184 11.1846 23.4264 11.1846 22.5527Z" fill="#979797"/>
</svg>
