<svg width="64" height="90" viewBox="0 0 64 90" fill="none" xmlns="http://www.w3.org/2000/svg">
<path d="M53.8546 9.17845C41.6167 -3.05948 21.7736 -3.05948 9.53392 9.17845C-1.49366 20.206 -2.73332 40.9698 6.62358 53.4474L31.6943 89.6543L56.7649 53.4474C66.1236 40.9698 64.8822 20.206 53.8546 9.17845Z" fill="#00A651"/>
<path d="M25.4889 40.0742C25.1726 40.6852 24.7419 41.2298 24.2202 41.6785C23.2439 42.5063 22.0663 43.0617 20.8067 43.2886C20.1228 43.4254 19.4191 43.4254 18.7358 43.2886C19.0607 42.6736 19.5033 42.1285 20.0387 41.6842C20.5154 41.2735 21.0456 40.9291 21.6146 40.6602C22.1829 40.3945 22.7831 40.2033 23.401 40.0913C24.0831 39.9599 24.784 39.9599 25.4661 40.0913" fill="white"/>
<path d="M30.9331 30.5796C29.9227 29.9542 29.0466 29.1343 28.3559 28.1673C27.6482 27.1973 27.0656 26.1423 26.6207 25.0269C25.7104 22.7724 25.3218 20.3413 25.4828 17.9154C25.6006 15.4089 26.5376 13.0103 28.1511 11.0884C28.9533 10.1739 29.9301 9.42934 31.0247 8.89875C32.1187 8.36815 33.3083 8.06226 34.523 7.99914C32.5221 8.91396 30.8051 10.3505 29.5506 12.1579C28.4628 13.9502 27.841 15.9862 27.7415 18.0804C27.6117 20.2322 27.8035 22.3912 28.3104 24.4864C28.8008 26.6667 29.6963 28.7355 30.9502 30.5853" fill="white"/>
<path d="M26.6625 52.0391C26.2864 50.1081 26.1544 48.1374 26.2699 46.1735C26.4105 44.2011 26.7211 42.2443 27.1973 40.325C27.6769 38.4054 28.2947 36.5231 29.0463 34.6927C29.8223 32.8494 30.7468 31.0723 31.8112 29.379C32.3773 28.4903 33.0418 27.6679 33.7911 26.927C34.0129 26.7392 34.2519 26.5173 34.4681 26.358L35.1053 25.9257C35.5433 25.6583 35.9757 25.3852 36.4365 25.1576C38.2514 24.2132 40.1914 23.6614 41.7275 22.8819C42.487 22.4622 43.1538 21.893 43.688 21.2086C44.2216 20.5241 44.6113 19.7386 44.8338 18.8995C45.2673 17.051 45.3327 15.1353 45.0272 13.2615C45.8049 15.1088 46.1139 17.12 45.9261 19.1157C45.7822 20.1665 45.4306 21.1781 44.8907 22.0911C44.3229 23.0136 43.5594 23.8002 42.6548 24.3953C41.8015 24.9466 40.9009 25.4207 39.9638 25.8119C39.1088 26.1905 38.273 26.6121 37.4606 27.0749C37.0811 27.31 36.7017 27.549 36.3228 27.7917L35.7538 28.1843C35.5718 28.3094 35.4694 28.4346 35.3158 28.5598C34.707 29.2006 34.1654 29.9022 33.7 30.6534C31.6963 33.8493 30.0788 37.2716 28.8813 40.8484C28.2731 42.6503 27.7679 44.4851 27.3679 46.3442C26.9862 48.2196 26.7507 50.1217 26.6625 52.0334" fill="white"/>
<path d="M32.3336 13.463C33.6182 14.4308 34.6246 15.72 35.2521 17.2008C35.9115 18.6995 36.2341 20.3248 36.1954 21.9618C36.1573 23.5987 35.7596 25.2072 35.0302 26.6734C34.3208 28.1177 33.2461 29.3514 31.9126 30.2519C32.4968 28.8828 32.9838 27.474 33.369 26.0362C33.7149 24.6816 33.9055 23.2921 33.9379 21.8944C33.9766 20.4969 33.8548 19.0995 33.5738 17.7299C33.2689 16.2733 32.8564 14.8413 32.3392 13.446" fill="white"/>
<path d="M41.5043 14.2584C40.7089 15.1304 39.9625 16.0459 39.2684 17.0006C38.6284 17.8657 38.072 18.7896 37.6072 19.7598C37.1384 20.7288 36.7572 21.738 36.4693 22.7751C36.1735 23.8447 35.963 24.9598 35.7468 26.1886C35.0579 25.0976 34.6943 23.8323 34.7 22.5418C34.6903 21.2283 34.9822 19.93 35.5534 18.7472C36.12 17.5636 36.9535 16.5276 37.9884 15.7205C38.9919 14.9104 40.2054 14.4031 41.4872 14.2584" fill="white"/>
<path d="M52.8144 20.7147C52.3491 22.086 51.5332 23.3118 50.4477 24.2705C49.3509 25.2603 48.0497 25.9964 46.636 26.4267C45.2302 26.8588 43.7476 26.983 42.2894 26.7908C40.8546 26.6277 39.4841 26.1031 38.307 25.2661C39.735 25.2149 41.0435 25.1693 42.3179 25.0101C43.5593 24.8715 44.7853 24.6221 45.9817 24.2648C47.1622 23.8961 48.3052 23.4161 49.3952 22.8311C50.5718 22.1897 51.7113 21.4831 52.8087 20.7147" fill="white"/>
<path d="M8.38105 23.7887C10.0787 24.9485 11.9772 25.7837 13.9792 26.2522C14.9157 26.4343 15.872 26.4917 16.8238 26.4228C17.8126 26.3205 18.7923 26.1417 19.7538 25.888C20.858 25.6014 21.9925 25.4448 23.1332 25.4215C24.3267 25.445 25.5027 25.7162 26.5865 26.218C28.6261 27.2213 30.2577 28.897 31.2061 30.9628C29.4994 29.586 27.7926 28.3913 25.955 27.8793C25.051 27.6233 24.1106 27.5195 23.173 27.572C22.1887 27.6651 21.2148 27.8402 20.2601 28.0955C19.1638 28.3751 18.0402 28.5315 16.9092 28.562C15.7446 28.561 14.5885 28.3549 13.4956 27.9532C11.3855 27.151 9.59058 25.6908 8.37536 23.7887" fill="white"/>
<path d="M15.3281 14.6058C15.2428 17.513 15.6353 20.039 16.9837 22.0359C17.6533 23.0616 18.5129 23.9498 19.5154 24.653C20.6344 25.4188 21.8462 26.0383 23.1223 26.4963C21.6562 26.8995 20.0979 26.8055 18.6904 26.2289C17.2146 25.6378 15.9573 24.6051 15.0903 23.272C14.2238 21.9389 13.7903 20.3706 13.8489 18.7817C13.8916 17.269 14.4093 15.808 15.3281 14.6058Z" fill="white"/>
<path d="M18.6411 15.9063C20.0469 15.3456 21.6034 15.2913 23.0445 15.7527C24.5857 16.2301 25.9079 17.2379 26.7766 18.5973C27.5799 19.9392 27.964 21.4903 27.8803 23.0519C27.8325 24.4745 27.6419 25.8888 27.3114 27.2733C26.7647 25.9719 26.3585 24.6159 26.0996 23.2283C25.8857 22.0275 25.4664 20.8727 24.8594 19.8147C24.2114 18.828 23.3477 18.0013 22.3334 17.3968C21.1762 16.73 19.9291 16.2337 18.6297 15.9233" fill="white"/>
<path d="M18.49 30.2703C18.9566 30.9581 19.4618 31.6191 20.0034 32.2502C20.4631 32.7789 20.9762 33.2593 21.5338 33.6839C22.093 34.107 22.691 34.4765 23.3202 34.7876C23.9972 35.1232 24.7368 35.4304 25.5959 35.7832C24.8039 36.3407 23.8407 36.6006 22.8764 36.5171C21.8785 36.4476 20.9233 36.0877 20.1285 35.4816C18.5185 34.2698 17.7106 32.0681 18.4616 30.2703" fill="white"/>
<path d="M14.1278 44.1307C14.0408 42.7541 14.3679 41.383 15.0665 40.1937C15.7418 38.9761 16.6783 37.9231 17.8087 37.1102C18.9295 36.2813 20.2227 35.7155 21.592 35.4546C22.9398 35.1647 24.3439 35.2815 25.6257 35.7903C24.4281 36.1529 23.2601 36.6074 22.1325 37.15C21.0829 37.6553 20.081 38.2552 19.14 38.9421C18.1922 39.6163 17.3104 40.3782 16.5059 41.2178C15.6326 42.1141 14.8373 43.0828 14.1278 44.1136" fill="white"/>
<path d="M8.95166 28.4408C8.92492 29.293 9.0518 30.1428 9.32715 30.9498C9.56724 31.7225 9.89152 32.4666 10.2943 33.1686C10.9634 34.4981 12.0619 35.5626 13.412 36.1895C14.8212 36.7217 16.3539 36.8363 17.8268 36.5195C19.496 36.1714 21.134 35.6881 22.7252 35.0744C21.5379 36.4767 20.0206 37.5616 18.3104 38.2319C16.4557 38.9978 14.3763 39.0101 12.5131 38.2661C11.5653 37.8577 10.7273 37.2321 10.0667 36.4398C9.44947 35.6777 8.97556 34.8104 8.6672 33.8797C8.36966 32.9807 8.22117 32.039 8.22914 31.092C8.21833 30.1583 8.46865 29.2401 8.95166 28.4408Z" fill="white"/>
<path d="M7.01083 37.5938C7.59226 37.557 8.17484 37.6482 8.71759 37.8612C9.18182 38.044 9.61363 38.2994 9.99766 38.6178C10.3851 38.9411 10.7179 39.3254 10.9819 39.7557C11.2914 40.2485 11.486 40.8046 11.5508 41.3828C10.9694 41.4243 10.3862 41.3348 9.84405 41.1211C8.90021 40.7524 8.10201 40.0876 7.56837 39.2266C7.26229 38.7301 7.06828 38.1729 6.99944 37.5938" fill="white"/>
<path d="M10.0744 17.7632C10.6291 18.0166 11.1234 18.3851 11.5251 18.8442C11.8756 19.2458 12.1634 19.6986 12.3785 20.1868C12.5992 20.6729 12.7397 21.1917 12.7938 21.7229C12.8632 22.3283 12.8006 22.9415 12.6117 23.5207C12.0576 23.2688 11.5644 22.9 11.1667 22.4398C10.8117 22.0398 10.5221 21.5868 10.3076 21.0971C10.0943 20.6087 9.95602 20.0908 9.89799 19.561C9.82858 18.956 9.88889 18.3433 10.0744 17.7632Z" fill="white"/>
<path d="M51.3816 14.3607C51.5978 14.9559 51.6911 15.5889 51.6547 16.2211C51.6234 16.7825 51.5102 17.3364 51.319 17.8653C51.1319 18.3956 50.8656 18.8943 50.5282 19.3445C50.1545 19.8565 49.6777 20.2847 49.1287 20.6018C48.9091 20.0074 48.8164 19.3738 48.8556 18.7414C48.8858 18.1798 48.999 17.6257 49.1913 17.0972C49.3819 16.5703 49.6487 16.074 49.9821 15.6237C50.3581 15.1122 50.8343 14.6825 51.3816 14.3607Z" fill="white"/>
<path d="M19.0984 19.4025C19.6565 19.3535 20.2181 19.4293 20.7426 19.6244C21.1904 19.7884 21.6062 20.0291 21.9715 20.3356C22.3367 20.6411 22.6451 21.009 22.8818 21.4222C23.1685 21.9037 23.3403 22.445 23.3824 23.0038C22.8249 23.0555 22.2628 22.9796 21.7382 22.7819C21.2916 22.6191 20.8775 22.3783 20.5151 22.0708C20.1561 21.7624 19.8517 21.3949 19.6162 20.9841C19.334 20.5008 19.1627 19.9604 19.1155 19.4025" fill="white"/>
<path d="M42.3226 17.6255C42.3972 18.1642 42.3488 18.7128 42.1804 19.2299C41.8965 20.1063 41.3065 20.8514 40.5192 21.3292C40.0532 21.6084 39.5298 21.7777 38.9888 21.8242C38.9097 21.286 38.9563 20.7368 39.1253 20.2198C39.267 19.7848 39.4843 19.3784 39.7682 19.0194C40.0543 18.6623 40.4008 18.3581 40.7922 18.1205C41.2576 17.8404 41.781 17.6711 42.3226 17.6255Z" fill="white"/>
<path d="M21.8263 29.4439C22.4225 29.4022 23.021 29.4915 23.5785 29.7056C24.0638 29.8866 24.5173 30.1439 24.9212 30.4679C25.328 30.7879 25.6796 31.1723 25.9623 31.6058C26.2929 32.1027 26.5102 32.6658 26.5995 33.2556C26.0056 33.299 25.4099 33.2116 24.8529 32.9996C24.3659 32.8201 23.9119 32.5605 23.5103 32.2316C23.1041 31.9113 22.7525 31.527 22.4692 31.0937C22.1397 30.5982 21.9201 30.0374 21.8263 29.4496" fill="white"/>
<path d="M16.9051 35.2054C16.2941 35.1024 15.7121 34.8696 15.1984 34.5227C14.308 33.9171 13.6219 33.0564 13.2299 32.0536C13.0052 31.4842 12.9085 30.8725 12.9454 30.2615C13.5565 30.3644 14.1385 30.5972 14.6522 30.9442C15.0977 31.2428 15.4931 31.6095 15.8242 32.0308C16.161 32.4479 16.4278 32.9167 16.615 33.419C16.8397 33.9865 16.9387 34.596 16.9051 35.2054Z" fill="white"/>
<path d="M44.1849 28.6228C44.6685 29.4582 44.8283 30.4421 44.6343 31.3877C44.541 31.8764 44.3698 32.3469 44.128 32.7816C44.0068 33.0044 43.8663 33.2157 43.707 33.4131C43.5278 33.6247 43.3258 33.8156 43.1039 33.982C42.349 34.5596 41.4677 34.9496 40.5324 35.1198C39.6318 35.3192 38.6948 35.282 37.813 35.0117C38.4678 34.4515 39.1556 33.931 39.8725 33.4529C40.5381 33.0091 41.2208 32.5995 41.7158 32.2297C41.8244 32.1499 41.9268 32.0624 42.023 31.968C42.1424 31.8542 42.2449 31.7291 42.3586 31.6039C42.5822 31.3405 42.791 31.0651 42.9845 30.779C43.4322 30.0897 43.8333 29.3712 44.1849 28.6285" fill="white"/>
<path d="M50.2812 41.8059C49.4397 40.878 48.5243 40.0199 47.5447 39.24C46.6338 38.5085 45.6593 37.861 44.6318 37.3057C43.614 36.7413 42.5456 36.2747 41.4401 35.9119C40.2511 35.5184 39.0336 35.216 37.7991 35.0073C39.0131 34.3362 40.399 34.0411 41.7815 34.1596C43.1702 34.2595 44.5209 34.6592 45.7406 35.3309C46.9604 36.0027 48.0203 36.9306 48.8475 38.051C49.6935 39.1377 50.193 40.4541 50.2812 41.8286" fill="white"/>
<path d="M53.411 25.5898C53.9924 26.319 54.3588 27.1957 54.4692 28.1215C54.5961 29.0678 54.5693 30.0284 54.3895 30.9661C54.2029 31.927 53.8445 32.8462 53.3313 33.6799C52.7721 34.5388 52.02 35.2557 51.1353 35.7735C49.3813 36.7487 47.3161 37.0017 45.3778 36.479C43.5965 36.0338 41.9541 35.152 40.5989 33.9131C42.2545 34.3202 43.9402 34.5905 45.6395 34.721C47.1421 34.85 48.6497 34.5418 49.9804 33.8335C51.2394 33.0317 52.1912 31.8292 52.6828 30.42C52.9934 29.6715 53.2204 28.8911 53.3598 28.0931C53.5288 27.259 53.5458 26.4015 53.411 25.5614" fill="white"/>
<path d="M56.5073 34.4183C56.517 35.0069 56.3941 35.5901 56.1489 36.1251C55.9412 36.5862 55.6608 37.0108 55.3183 37.3824C54.9763 37.7501 54.5764 38.0595 54.1349 38.2983C53.6229 38.5793 53.0562 38.7444 52.4737 38.7819C52.4629 38.1933 52.5852 37.6098 52.8321 37.0752C53.0375 36.6163 53.3179 36.1952 53.6627 35.8292C54.0052 35.4582 54.4069 35.1467 54.8518 34.9076C55.3621 34.6293 55.927 34.4662 56.5073 34.4297" fill="white"/>
<path d="M40.7639 28.226C40.7514 28.819 40.6075 29.4019 40.343 29.9328C40.1188 30.4072 39.8213 30.8431 39.4611 31.2242C39.1004 31.6001 38.6817 31.9151 38.2209 32.1573C37.6935 32.439 37.1109 32.6021 36.5141 32.6352C36.5312 32.0427 36.6746 31.4607 36.9351 30.9284C37.3937 29.9907 38.139 29.2234 39.0629 28.7381C39.5897 28.4543 40.1723 28.2892 40.7696 28.2545" fill="white"/>
<path d="M46.4073 33.2922C46.2981 32.6918 46.3174 32.0752 46.4642 31.483C46.7168 30.4354 47.2874 29.4916 48.097 28.7806C48.5527 28.3709 49.0926 28.066 49.6786 27.8874C49.7872 28.4896 49.7679 29.108 49.6217 29.7023C49.4965 30.2229 49.2889 30.7203 49.0073 31.1758C48.7308 31.6337 48.3854 32.0462 47.9832 32.399C47.5286 32.8075 46.991 33.1123 46.4073 33.2922Z" fill="white"/>
<path d="M35.6625 38.0148C36.3663 37.9694 37.0729 38.0562 37.7448 38.2708C38.3439 38.4679 38.9173 38.7373 39.4515 39.073C39.9937 39.4104 40.4893 39.8178 40.925 40.2848C41.4137 40.7945 41.8 41.3931 42.0629 42.0484C41.3586 42.0971 40.652 42.0103 39.9806 41.7924C39.3696 41.6012 38.7865 41.3315 38.2454 40.9902C37.7118 40.6435 37.2259 40.2285 36.8004 39.7557C36.3128 39.2472 35.9265 38.6506 35.6625 37.9977" fill="white"/>
<path d="M30.6461 16.5832C31.1183 17.1651 31.4808 17.8283 31.7157 18.5402C32.1686 19.8514 32.3011 21.2521 32.1026 22.6251C32.0007 23.371 31.7635 24.0921 31.4028 24.7528C30.9289 24.1685 30.5648 23.5036 30.3276 22.7901C30.1023 22.1371 29.9589 21.4587 29.9009 20.7704C29.8354 20.0824 29.8525 19.3891 29.9521 18.7052C30.0516 17.9614 30.2872 17.2422 30.6461 16.5832Z" fill="white"/>
</svg>
