<svg width="64" height="90" viewBox="0 0 64 90" fill="none" xmlns="http://www.w3.org/2000/svg">
<path d="M53.8546 9.17845C41.6167 -3.05948 21.7736 -3.05948 9.53392 9.17845C-1.49366 20.206 -2.73332 40.9698 6.62358 53.4474L31.6943 89.6543L56.7649 53.4474C66.1236 40.9698 64.8822 20.206 53.8546 9.17845Z" fill="#00A651"/>
<path d="M56.748 30.4161C56.748 27.5042 56.2235 24.6878 55.2938 22.0861C55.27 22.0145 55.2462 21.9668 55.2223 21.8952C52.3618 14.2336 45.7587 8.36207 37.63 6.57197C37.6061 6.57197 37.6061 6.57197 37.5823 6.57197C35.8898 6.21395 34.1496 5.99914 32.3618 5.99914C28.6669 5.99914 25.1866 6.83452 22.04 8.29046C21.9923 8.31433 21.9446 8.3382 21.8969 8.36207C19.2033 9.67481 16.7718 11.4649 14.7217 13.613C14.6741 13.6369 14.6502 13.6846 14.6025 13.7324C14.5787 13.7562 14.5787 13.7801 14.5549 13.804C13.5298 14.9019 12.6002 16.1192 11.7897 17.3842C11.742 17.4319 11.7182 17.4796 11.6943 17.5274C10.0495 20.1767 8.88145 23.1363 8.33318 26.3346C8.11863 27.6713 7.99944 29.0317 7.99944 30.4161C7.99944 37.5049 11.0269 43.9015 15.8898 48.3648C15.9375 48.4364 16.009 48.4841 16.0805 48.5557C19.2509 51.4199 23.1604 53.4487 27.4988 54.3318H27.5227C27.5227 54.3318 27.5227 54.3318 27.5465 54.3318C29.1198 54.6421 30.717 54.8091 32.3856 54.8091C34.4595 54.8091 36.4857 54.5466 38.4166 54.0454C38.4643 54.0454 38.4881 54.0215 38.5358 54.0215C39.3463 53.8067 40.1568 53.5441 40.9434 53.2577H40.9673C40.9911 53.2577 40.9911 53.2338 41.0149 53.2338C50.1925 49.7491 56.748 40.8464 56.748 30.4161ZM37.0817 8.36207C43.4702 11.5365 44.9244 16.8591 44.1854 20.7734C43.9232 22.11 43.5179 23.3512 43.0173 24.5923C42.8028 23.5421 42.3737 22.5396 41.7777 21.6088C39.8707 18.6492 36.2712 16.692 31.4083 15.9521C24.972 14.9496 23.6371 11.2262 23.3511 9.74641C26.1163 8.52914 29.1675 7.86084 32.3618 7.86084C33.9828 7.86084 35.5561 8.02792 37.0817 8.36207ZM22.7551 12.9925C23.5179 14.162 24.4953 15.069 25.568 15.7611C21.6347 17.0739 18.1782 15.236 16.6764 14.2336C18.1544 12.8015 19.823 11.5604 21.6586 10.5579C21.8493 11.2501 22.183 12.1093 22.7551 12.9925ZM26.9029 52.303C23.4464 51.4438 20.3236 49.773 17.7015 47.5294C18.1544 46.3837 19.0364 43.7821 19.2986 40.369C19.394 39.1517 19.4178 37.7435 19.2748 36.216C19.2748 36.1444 19.2748 36.0966 19.2509 36.025C19.2509 36.0012 19.2509 35.9773 19.2509 35.9773C18.8695 32.2778 17.5823 27.9099 14.2927 23.5898C13.9828 23.1841 13.4106 23.1125 13.0054 23.4228C12.6002 23.733 12.5286 24.3059 12.8385 24.7116C13.7682 25.9289 14.5787 27.2178 15.2223 28.5305C14.7217 28.077 14.2211 27.719 13.7682 27.4087C12.4333 26.5256 11.146 26.0482 10.3356 25.8096C10.8362 23.4228 11.7182 21.1792 12.8862 19.1265C14.3403 19.8664 17.8445 21.9429 21.0149 25.9289C23.4226 28.9601 25.1627 32.5165 26.2116 36.4785C27.4273 41.1805 27.6657 46.5031 26.9029 52.303ZM9.83496 30.4161C9.83496 29.4614 9.88264 28.5305 10.0018 27.6235C11.9565 28.2441 16.3904 30.2729 17.4393 36.3353C17.4393 36.3353 17.4393 36.3353 17.4393 36.3592C17.5584 37.6003 17.5584 38.8653 17.4631 40.1542C17.2724 42.7797 16.6764 44.9039 16.2474 46.1689C12.2903 42.0875 9.83496 36.5263 9.83496 30.4161ZM28.6907 52.6849C28.7623 52.6849 28.953 49.9162 28.9768 49.7253C29.1437 47.3862 29.1198 45.1187 29.0245 42.7797C28.9291 40.369 28.9053 37.9345 29.3105 35.5716C29.7158 33.137 30.4547 30.7264 31.6466 28.5305C31.8612 28.1486 32.0757 27.7429 32.3141 27.3848C34.0066 24.7355 35.7468 23.6376 35.7944 23.6376C36.2235 23.375 36.3665 22.8261 36.1043 22.3726C35.8421 21.9429 35.27 21.7997 34.8409 22.0623C34.5787 22.2294 29.3105 25.4993 27.5704 34.76C26.4261 31.0128 24.6621 27.6474 22.326 24.7116C19.0841 20.6063 15.5561 18.4344 13.8636 17.5751C14.3403 16.8829 14.8648 16.2146 15.413 15.5941C16.1043 16.0714 17.2485 16.7875 18.7265 17.3126C20.0853 17.8138 21.444 18.0525 22.8028 18.0525C24.4953 18.0525 26.1639 17.6467 27.7372 16.8591C28.9291 17.3126 30.0972 17.599 31.146 17.766C35.4845 18.4344 38.6311 20.1051 40.2521 22.6112C40.9196 23.6614 41.3248 24.9026 41.4202 26.1437C41.5155 27.5042 41.1341 28.5782 40.4905 29.7716C39.5847 31.4663 38.655 33.2325 37.8683 35.0942C37.6776 35.5716 37.8922 36.0966 38.3689 36.2876C38.4881 36.3353 38.6073 36.3592 38.7265 36.3592C39.0841 36.3592 39.4178 36.1444 39.5847 35.7864C40.3236 33.9963 41.2533 32.2778 42.1353 30.607C43.7086 27.6474 45.3296 24.5684 45.9971 21.1076C46.5692 18.0763 46.0209 15.0928 44.3999 12.4435C43.9708 11.7513 43.4702 11.1069 42.922 10.4863C47.5942 12.9686 51.2891 17.05 53.2915 22.0145C43.6133 29.4614 40.419 37.29 39.4416 42.5649C38.655 46.9327 39.1794 50.2981 39.537 51.8018C39.2509 51.8972 38.9649 51.9927 38.6788 52.0643C35.2462 45.4529 37.8445 40.2974 37.9637 40.0587C38.2021 39.6052 38.0352 39.0563 37.5823 38.8176C37.1294 38.5789 36.5811 38.746 36.3427 39.1995C36.1997 39.462 33.2676 45.1903 36.8433 52.5178C35.3892 52.8042 33.8874 52.9713 32.3618 52.9713C31.1222 52.9952 29.8826 52.8758 28.6907 52.6849ZM41.2772 51.1573C41.301 51.1573 41.0388 49.8207 41.0388 49.7253C40.9434 49.0331 40.8957 48.3171 40.8719 47.601C40.8242 46.0496 40.8481 44.4266 41.3725 42.9229C41.8493 41.5147 42.4929 40.1781 43.3034 38.9369C45.5203 35.5954 48.6431 33.5905 52.5286 33.0415C53.0292 32.9699 53.3868 32.4926 53.3153 31.9914C53.2438 31.4901 52.767 31.1321 52.2664 31.2037C49.0245 31.6572 46.2116 33.0654 43.947 35.2613C46.1639 31.156 49.5251 27.2655 53.9351 23.8046C54.5787 25.8812 54.9124 28.1009 54.9124 30.3922C54.9124 39.7007 49.2867 47.6726 41.2772 51.1573Z" fill="white"/>
<path d="M22.3974 19.4841C21.8968 19.3647 21.4201 19.675 21.3009 20.1524C21.1817 20.6536 21.4678 21.131 21.9683 21.2742C22.1114 21.3219 25.6394 22.2527 27.4511 26.8354C27.5941 27.1934 27.9278 27.4082 28.3092 27.4082C28.4284 27.4082 28.5476 27.3844 28.643 27.3366C29.1197 27.1457 29.3343 26.6206 29.1674 26.1432C26.9743 20.6536 22.5881 19.5318 22.3974 19.4841Z" fill="white"/>
</svg>
