<svg width="42" height="50" viewBox="0 0 42 50" fill="none" xmlns="http://www.w3.org/2000/svg">
<path d="M6.64516 35.0247L20.4531 49.7312C20.6136 49.9027 20.8383 50 21.0734 50C21.3085 50 21.5331 49.9027 21.6941 49.7312L35.5011 35.0247C37.6142 32.7739 39.1706 30.3036 40.1267 27.6828C41.1027 25.0515 41.5145 22.2446 41.3355 19.4437C40.9992 14.3261 38.8215 9.50339 35.2052 5.86665C31.4611 2.1107 26.3762 0 21.0729 0C15.77 0 10.6851 2.1107 6.94105 5.86665C3.32474 9.50339 1.14707 14.3261 0.810323 19.4437C0.631264 22.2446 1.04305 25.0515 2.01909 27.6828C2.97565 30.3036 4.53208 32.7739 6.64516 35.0247ZM2.50876 19.5573C2.81796 14.85 4.82085 10.4134 8.14649 7.06829C11.5714 3.63294 16.2226 1.70224 21.0729 1.70224C25.9236 1.70224 30.5749 3.63294 33.9993 7.06829C37.3254 10.4134 39.3278 14.85 39.637 19.5573C39.7999 22.1211 39.4223 24.6906 38.5275 27.0991C37.6507 29.5028 36.215 31.7774 34.26 33.8596L21.0729 47.9059L7.88622 33.8596C5.9313 31.7774 4.49551 29.5028 3.61826 27.0996C2.72392 24.6911 2.34585 22.1211 2.50876 19.5573Z" fill="#1A1A1A"/>
<path d="M21.0729 33.7181C28.8451 33.7181 35.1677 27.2354 35.1677 19.2675C35.1677 11.2997 28.8451 4.81653 21.0729 4.81653C13.3012 4.81653 6.9781 11.2987 6.9781 19.2671C6.9781 27.2349 13.3012 33.7181 21.0729 33.7181ZM21.0729 6.51877C27.9066 6.51877 33.4654 12.2377 33.4654 19.2671C33.4654 26.2964 27.9066 32.0158 21.0729 32.0158C14.2397 32.0158 8.68034 26.2964 8.68034 19.2671C8.68034 12.2377 14.2397 6.51877 21.0729 6.51877Z" fill="#1A1A1A"/>
<path d="M18.7926 23.574C19.1194 23.9012 19.6475 23.9069 19.9819 23.5877L27.7403 16.1775C28.0804 15.8526 28.0927 15.314 27.7679 14.9739C27.4435 14.6339 26.9044 14.6215 26.5648 14.9464L19.4082 21.7819L15.5957 17.9695C15.2632 17.637 14.7242 17.637 14.3917 17.9695C14.0592 18.3019 14.0592 18.841 14.3917 19.1735L18.7926 23.574Z" fill="#1A1A1A"/>
</svg>
